<svg id="Слой_1" data-name="Слой 1" xmlns="http://www.w3.org/2000/svg" viewBox="0 0 817.26 267.19"><path d="M807.88,303.45c5,0,11.19-11.09,14.71-17.52s6-19.37,7-24.72a.23.23,0,0,0-.45-.12c-1.52,4.08-2.92,8.22-4.82,12.11-4.17,8.53-7.17,18-16.88,22.48-2.91,1.33-7.37,1.12-8.54,4.25-2.11,5.65-2.38,3.82-8.29,3.72s-12.65.63-17.17-2.09c-5.12-3.08-10.21-2.1-14-3.24a1.21,1.21,0,0,0-1.27.34c-3.69,4.23-6.59,8.17-10.21,11.26-3.3,2.81-7.17,4.65-6.77,10,.12,1.5-.84,3.31-1.79,4.63-3,4.17-2.36,8.73,1.83,11.71,2.39,1.71,5.5,3,6.89,5.38,2.54,4.24,6,3.34,9.14,2.31,2.61-.86,9.13-5.25,7.7-5.16-1.59-.07-10.6,1.88-13.95-.4-1.39-.94-2.06-2.87-3.32-4.08-2.82-2.72-3.4-5.66-.69-8.42,4.21-4.29,8.8-8.2,13.25-12.24.12-.1.54.13,1.06.27L759,317.33a.23.23,0,0,0,.13.33c5.7,1.83,11.64,3.53,17.41,5.68,6.2,2.31,13.26,12.46,13.95,12.94,1.48,1,2.65-2.07,3.76-4.07.65-1.84.21,2.06.11,2.63-.37,2.19-5.18,7.83-9.43,10.08-5.83,3.07-12.17,5.34-17.62,9-6.6,4.4-13.51,4.56-20.86,3.58-1.34-.23,1.37-.59,1.93-1.35,1.27-1.55-6.06.44-8.71-1.27-4.8-3.1-8.86-7.36-13.16-11.22-3-2.73-3.94-6.29-3.69-10.25,0-.77.94-5.79-.84-2.35-3.26.45-.86-10.73,3.13-20.58a5.29,5.29,0,0,0-.18-3.69c-2.89-6.9-3.75-23.58-2.67-21.86.32.68.54,1.17.77,1.68a.75.75,0,0,0,1.14.28c4.28-3.37,8.44-6.71,12.68-9.94,3.72-2.84,7.8-5.27,11.24-8.4,2.8-2.55,4.5-6.37,7.42-8.71,3.5-2.81,11.59-5.28,12.52-5.33,2.19-.13-6.36,2.41-6.36,3.11,0,1.84,8.85,7.63,13.79,10,5.23,2.46,17.31-2.25,16.44-1.07-1.43,1.18-3.11,1.7-4.58,2.59-2.32,1.41-5,2.87-6.43,4.67-6.49,8.29-15.2,9.42-16.38,8.29-2-2-3.5-4.56-5.06-6.81a.23.23,0,0,0-.42.08c-1,4.69,5.44,13.83,11.13,13,2.47-.35,5.09.36,6.6.52a.34.34,0,0,0,.17-.05c4.79-3.33,9.25-6.19,13.44-9.4,5-3.8,11.78-4.47,15.13-11.21,3.77-7.59,6.4-15.53,5.24-22.85a.25.25,0,0,0-.46-.07c-2.77,5.19-4.46,7-8.37,7.13-9.52.42-18.31-1.53-25-9.09-3-3.35-6.06-6.58-9-9.7a.64.64,0,0,0-1.08.22c-.36,1-.89,2.36-1.3,3.37a.31.31,0,0,1-.59-.12s1.28-16.26-.55-16.9-5.3,3.84-6.56,5.77a32.8,32.8,0,0,1-7.31,8.47c-3.14,2.44-6.43,5.13-8,9.64s-9.06,10.67-9.06,10.67,9.89-13.58,12-21.87c2.19-8.78-2.84-27.17-3.4-25.36-.52,6.86,5,13.12,1,20.37-2.29,4.15-3,9.37-5.81,13-4.9,6.3-10.92,11.73-16.43,17.57-1.77,1.88-3,4.51-5.13,5.76-5.21,3.1-10.74,5.69-16.23,8.31-3.49,1.67-7.72,7.06-7.61,10a.24.24,0,0,0,.21.22c7.76,1,13.61,9.72,12.25,18.07a.24.24,0,0,1-.46,0c-.8-2.5-1.58-5-2.36-7.42-.45-1.67-1.17-2.73-1.38.12-1.79,14.87-2.64,32.43-7.14,45.2h0c0,.07-3.05,12.61-.37,15.61,2.38,2.26,4.3,13.86,6.21,17.73,2.5,5.06,2.94,10.5,2.25,16.12a.24.24,0,0,0,.46.11,28.11,28.11,0,0,0,2-8.53c.21-3.58-.39-7.21-.62-10.82-.17-2.93,4.2,7.28,6.34,12.35.18.43,1.18,2.39.73-.21-.74-4.37-3.76-14.35-5.75-20.35a.88.88,0,0,1,.11-.8c1.94-2.76,5.52-3.7,10-2.39,1.39.67-5.08,0-4.84,1.06.06.29,5.63,6.76,8.44,9.69.88.9,2.83,2.39,3,2.09,2.28-3,6.47,1.25,9.09,2.65a157.87,157.87,0,0,1,20.85,12.81c6.13,4.64,11.43,10.4,16.89,15.87a6.27,6.27,0,0,1,1.32,4.37,17.24,17.24,0,0,1-17,16.49c-.51,0-1,.1-1.77.18,3.93,3.58,8.42,4.16,12.21,2.36,5.31-2.53,9-8.31,15.74-8,.32,0,.77-.43,1-.77,3-4.7,5.88-9.46,8.92-14.13,3.92-6,7.21-12.7,12.19-17.68,3.43-3.42,5.22-11.29,2.69-10.14l-5.86,2c-1.76.72-.12-.86.28-1.14,5.45-3.91,12-7.75,17.28-11.89A13.82,13.82,0,0,0,819,358c2.28-5.62,4.06-11.43,6.14-17.13.7-1.93,1.65-3.78,2.68-6a.25.25,0,0,0-.24-.35c-11.17.81-13.3-8.12-17.31-15.28a.25.25,0,0,0-.36-.09c-.83.61-1.56,1.94-2.14,1.59a56.38,56.38,0,0,1-4.82-7.54C802.6,312,802.33,303.49,807.88,303.45Z" transform="translate(-12.32 -164.04)"/><path d="M608.93,258.82c-2.55,1.92-1.65,3.82-.24,7.54a.13.13,0,0,0,0,.05c.66,1.07,1.46,2.14,1.42,3.17-.19,4.57-1.77,16.19-2.38,21.91a.3.3,0,0,0,.53.22c2-2.45,7-9.7,7.61-10.68,4-6.78,3.23-3.29,2.46-8.53-.15-1,1-2.36,3.23-2.8,2.52-.49,5-3.16,6.66-5.49a68.08,68.08,0,0,0,4.56-8.36l0,0c2-6.71-.23-5.27-3-1.82l0,0c-3.08,3.16-6.12,7.09-11.63,4.93a.32.32,0,0,1-.2-.27c-.47-7.22,2.51-13.5,6.23-19.7a.3.3,0,0,0-.48-.36c-3.1,3.35-5.87,6.94-8.63,10.53C615.1,249.17,612.26,256.4,608.93,258.82Z" transform="translate(-12.32 -164.04)"/><path d="M692,272.61c-1.08-7.16-1.48-14.46-5-21.09-1.12-2.13-8.06-5.85-7.37-4.7.53.59,1,1.09,1.46,1.62,3.72,4.47,5.11,12.3.43,18.31-1,1.35-.49,4-.58,6-.07,1.53,0,3.06,0,4.58.07,3.6-.94,2.87-1.39,0-.12-1.62-.24-3.23-.35-4.76a.34.34,0,0,0-.6-.19c-2,2.37-3.9,4.43-5.53,6.68-1.82,2.5-3.34,5.22-5,7.84-1.43,1.69,4.58,2.07,4.67,4.43.25,6.29.49,12.59.63,18.88.1,4.3,0,8.6,0,13.48-2.15-2.54-3.56-4.16-4.92-5.83-3.14-3.83-7.59-6.62-8.3-12.32-.34-2.65-1.73-6.28-3.77-7.38-5.11-2.77-6.23-7.11-6.7-12-.29-3,.42-6.11-2.43-8.52-.84-.71-1.09-2.62-.94-3.89.4-3.24,1.19-6.44,1.82-9.65.05-1-1.71,1.75-1.82,2.82-.44,4.23-3.24,7.39-1.08,12.81,1.4,3.52.3,4.22-.36,5.14-1.9,2.65-2.85-2.88-2.82-12,0-.52.45-1,.52-1.57.54-3.81,1.94-7.78,1.33-11.4-1.16-6.94-3.48-13.68-5.32-20.5-1.46-3.13,2.42,12.49,2.34,15.06a32,32,0,0,1-2.71,11,107.41,107.41,0,0,1-6.6,12.5,55.21,55.21,0,0,1-4.17,5.53c-1.59,1.77-1.86,1.31-.92-.56l1.83-4.12c.71-1.5.74-2.35-.88-.61-1.1,1.07-2.17,2.17-3.3,3.21-2.37,2.18-4.58,4.61-7.22,6.41-5,3.42-10.7,6.05-12.53,13.58l4.4-3.33c1,3.7,2.52,7,2.47,10.2s-1.72,6.34-2.76,9.79c-.62-2.07-1.18-3.9-1.78-5.88-4.9,5-6.9,7.05-13.66,4.46-.18,1-.36,1.9-.58,3.05-.6-.52-1.26-.79-1.37-1.46a17.09,17.09,0,0,0-4.72-8.8c-4.9-5.24-4.53-11-.31-12.67.88-.33-1.67,3-2.63,4.82a.22.22,0,0,0,.25.31c4.63-1.06,9.36-.87,11.28-4.66a.82.82,0,0,0,0-.76c-1-1.69-2.25-3-2-4a44.4,44.4,0,0,1,3.14-9.71c1.94-4.15,3.55-11.94,6.74-14.29,1.45-1.07-.55-4.69-1.29-7.17a62.18,62.18,0,0,0-3.43-9.08c-1.38-1.56,1.34,7.63,1.29,12.59,0,5.36-11.14,13.77-14.81,17.76.14,0,.48.05.83.11s1,.23,1.51.35c-5.61,3.43-12.69,3.7-16.72,9.69-.79,1.16-3.19,1.29-4.88,1.8-2.69.8-5.4,1.52-8.3,2.33.16-2.74-.21-5.95.65-8.8,1.16-3.82,4.6-7.35-.33-10.93a3.6,3.6,0,0,1-.91-1.84c-1.27-4-4.34-22.14-3.65-11.86.51,3.92-5.27,31.3-2.47,8.55a51.14,51.14,0,0,0,.31-13.69c-.64-4.29-.1-9.25-4.24-12.67,3.87,5.24,1.26,10.58-.89,14.76-2.27,4.41-7.82,7.59-10.63,11.26-.59.78,6.48-1.75,6.55-1,.17,3.37.64,6.48.41,9.55-.46,6.23-1.29,12.43-2,18.65-.1.82-.28,1.64-.46,2.45a.79.79,0,0,0,.83,1l2.08-.15a.67.67,0,0,1,.7.79c-.81,4.39-5.34,5.89-8.74,6.95-6.64,2.07-12.56-1.77-18.56-4.77,2,3,4,5.94,6.79,8,3.53,2.62,7.62,4.5,12,7l4.18-2.88c-.35,4.8-.73,8.87-.9,12.95-.07,1.6,1,3.5.42,4.78-1.39,3.1-3.46,5.89-5.2,8.84-2.42,4.11-4.79,8.24-7.18,12.37a.75.75,0,0,1-.84.35c-1.89-.51-4.37-1.25-6.9-1.71-3.39-.62-5.54,1.79-5.92,5.28-.46,4.22-1.11,8.6-6.38,10.83l-9.43-14.46a26.89,26.89,0,0,0,3.2-3.42c2.33-3.81,7.67-12.1,8.42-15.16a.6.6,0,0,0-.83-.69,9.72,9.72,0,0,0-2.87,1.93.65.65,0,0,1-1-.27c-.55-1.42-1.31-2.77-1-3.75,2.57-7.49,5.49-14.86,8.26-22.28.38-1,1-2.28.72-3.16-2.15-6.31,1.15-11.5,3.24-17,2-5.08,2.85-10.24,1-15.56.49,5.45-8.74,12.28-10.43,19-.87,4.81-4.48-7.27-7.31-11.47-1.93-2.87-2.56-16.06-.38-21.07,2.3-5.3,5.94-10,8.73-14.57.28,0-.82-.25-1.26.2-3.9,4-7.68,8-11.49,12.1a2.37,2.37,0,0,0-.42.61c-2.45,4.9-4.83,9.85-7.37,14.71-1.76,3.38-3.76,6.62-5.58,10a2,2,0,0,0,.13,1.61,1.56,1.56,0,0,0,1.36-.06c3.12-2.88,5.46-.57,7.32,1.45s2.92,4.55,4.63,7.33c.06-1.3.06-2.09.14-2.88s.22-1.6.33-2.4c2.74,22.9-3.9,43.51-15,63.08l-4-1.29c-.31-3.26-.59-6.44-.93-9.61s-.6-6.1-1.12-9.12c-.64-3.75-1.69-7.45-2.14-11.22-.13-1.12,1.21-2.41,1.88-3.62a46.18,46.18,0,0,0,2.22-4.16c.78-1.88,1.8-3.83,1.91-5.79.3-5.64,0-11.3.09-16.94,0-.07-.08-.07-.09,0l-3,13.72a.5.5,0,0,1-.83.26c-1.42-1.34-2.63-2.16-3.05-3.28-1.66-4.38-2.51-9.13-4.55-13.31-1.79-3.65-1.71-6.94-.83-10.59a72.71,72.71,0,0,0,1.82-9.92c.42-4.16,2.35-7.85,2.65-12.26a99.27,99.27,0,0,0,.11-11.95,13.44,13.44,0,0,0-1.81,4.92c-1.2,8.12-6.61,12.89-13,17.14-3.21,2.14-6.93,3.78-6,9.52.72,4.4-1.19,9.23-1.93,13.88-1.28,4.75-1.89,4.57-1.44-.17.87-9.42,1.75-18.84,2.65-28.59-4.93,7.7-5.65,18.46-14.08,24.51-.87.49-1.27.9.87.74l4.19-.58a.16.16,0,0,1,.18.17,80.84,80.84,0,0,1-1.19,9.19c-1.3,5.36-4.68,10.26-3.41,16.19a14.15,14.15,0,0,1,0,3.38c0,.2-.19.4-.45.91-.29-1.11-.3-3.31-.67-2.55-1.62,3.74-3.13,7.6-5,11.28-.61,1.19-2.15,1.92-3.29,2.83-3.3,2.65-6.9,5-9.83,8a58.11,58.11,0,0,0-7,9.43c-1.67,2.6-3,5.44-4.42,8.2a.14.14,0,0,0,.22.17c2.17-2.05,10.67-11.69,17-14.68-.63,2.45-1.2,4.75-1.83,7a38.1,38.1,0,0,1-1.33,3.9c-.92,2.27-2.29,4.43-2.81,6.79-.78,3.56-1,7-5.06,8.92s-2.25,9.21-1.16,10.95c2.54,4,4.77,5.58,9.3,8.14,3.3,1.85-6.53-10-.57-15.54,3.05-2.82,16.43-21.47,19.39-25.22,4.14-5.26,9.39-9.65,14.3-14.37a1.83,1.83,0,0,1,2.16-.28c1.67.92,3.3,1.59,3.75,2.72a44,44,0,0,1,2.66,21c-.69,6.27-.45,7,5.49,7.92a2.61,2.61,0,0,1,1.39.68q5.88,5.64,11.67,11.35c.45.44,1,1.29.86,1.73-1.52,4.59.57,9.92-3.15,14.11-1.71,1.93-2.66,4.52-4.26,6.59a16,16,0,0,1-4.73,4.49c-1.65.88-3.87.72-5.43.95a7,7,0,0,0,10.46-.2c4.39-5.12,8.33-10.63,12.36-16.06a3.76,3.76,0,0,0,.35-2.55c-.67-4.44-1.45-8.86-2.25-13.64,1.38.25,2.31.13,2.67.53,4.95,5.43,11.16,9.44,14.95,16.3,2.27,4.1,2.56,12.23,11,10.64.09,0,.21.17.33.22,7.43,3.45,7.89,3.21,9.86-3.58-4.25,2.69-8.57.13-9.44-5.58,2.24,1.05,3.46.34,4-2.15a24,24,0,0,1,1.24-4.19c.6-1.51,1.68-2.86,2.09-4.41.87-3.31,1.45-6.69,2.14-10l1.3.28c-.21,1.79,14.37,4.79,14.6,4.69,1.27-.55-6.54-3.47-5-4a27.78,27.78,0,0,1,5.6-1.49c.73,0,1.77,1.36,2.31,2.31,3.67,6.34,5.28,6.94,12.18,5.34,1.52-.35,4.33.16,4.88,1.17,2,3.75,4.59,11.77,5.44,13.82a.18.18,0,0,0,.34-.05c.92-5.61.47-7.38-2-11.75-1.66-2.95-.84-5.15.4-9,.48-1.47,1.26-2.31,1.23-3.29-.43-.27-2,1.87-2.6,3a3.42,3.42,0,0,1-5.46.93c-2.94-2.67-5.15-6.13-7.87-9.06-1.8-1.94-4-3.53-6.49-5.72.73-4.17,2.67-10.13,7.61-11.37,5.39-1.37,5.2-5.93,7.95-8.6,1-.93,1.81-3,1.44-4.12-2.6-8-2.87-15.07,5.59-20,1.84-1.07,5.83-4.45,5.45-3.83L564.42,310c0,.05,0,.12.08.11,3.44-.83,5.92-.38,8,2.53,2.3,3.16,5.28,5.83,7.49,9s4.4,6.48,5.35,10.06,2.68,4.74,6.08,4.28a13,13,0,0,1,2.66.29c-.9,1.74-1.71,3.12-2.34,4.58s-1.78,3.19-1.32,4.16a13.9,13.9,0,0,1,.72,10.23c-1.55,5.51-2.66,11.13-4.13,16.66-1.66,6.26-3.52,12.46-5.27,18.64-.47.17-1.75.26-2.37.95-5.4,5.89-10.62,12-20.28,11.45,4.59,2.49,4.61,2.56,8.68.91,4.33-1.76,8.58-3.72,12.91-5.5s8.95-2.94,11-8.22c1.46-3.8,4-7.2,6.12-10.72,3-4.91,6-9.77,9.19-14.94-4.58-9.07-3-18.56,2.21-27.63,2.86,6.52,2.18,13.05.82,20-1.31,6.7-4,18-2.94,20.21,2,3.65,4,7.25,5.92,10.9,1.57,3,3,3.79,6.09,3.37-4.05-3.45-3-8.69-4.51-13.16a30.28,30.28,0,0,1-1.57-6c0-1.2,1.37-1.6,2.14-1.94,2.9-1.26,5-3,7.65-4.6,5.74-3.58,6.35-7.11,5.19-9.18-.82-1.49-2.67-3-2.88-4.65s.41-3.48.32-5.21c-.31-6.43-.84-12.85-1.13-19.28-.06-1.43.75-2.88.8-4.34.11-3.63,0-7.26,0-10.9,0-1.52.81-3.24.33-4.51a54.89,54.89,0,0,0-3.38-6.77.92.92,0,0,1,0-.84c1-1.89,1.81-3,2-4.15,1-4.7,2.67-9,6.79-12.54,1,2.25,2.11,4.09,2.53,6.07.51,2.41,2.64,4.67-.25,7.61-1.12,1.14,1.24,5.19,1.08,7.87-.65,11.12,2.13,22.46-2.34,33.39-1.28,3.11-1.07,6.8-1.89,10.14-.32,1.31-2.34,2.41-2.31,3.57.09,4.07.61,8.14,1,12.2a1.28,1.28,0,0,0,1.45,1.15l3.14-.43a.43.43,0,0,1,.46.29,9.87,9.87,0,0,0,.95,2.91,53.79,53.79,0,0,1,9,20.61,7.9,7.9,0,0,0,1.73,3.57A58.62,58.62,0,0,0,665,406.89c2.45,1.09,8.33.5,8.54.44,2.59-.69-10.38-4.31-13.55-8.11a98.93,98.93,0,0,0-7-7.39c-.69-.67-2.54-.23-3-1.46-.07-.2-2.74-15.14-7.57-21.59a.17.17,0,0,1,.19-.26c3.67,1.29,7,3.21,10.59,4.29,4.64,1.39,6.18,5.65,9,8.67,1.92,2.09,5.14,6.06,6.69,8a.13.13,0,0,0,.22-.15c-2.8-5.27-5.41-10.65-8.62-15.66-1.89-3-4.88-5.26-7.55-7.65-3.13-2.81-7-5.22-9.64-8.15-.32-.36-.08-1.49.1-2.21.3-1.23.82-2.4,1.16-3.61,1-3.59,1.25-7.57,3.06-10.67,1.66-2.84,3.29-4.83.35-7.58-.18-.17.11-.79.09-1.2-.18-3.7-.46-7.39-.55-11.08-.1-3.87,0-7.74,0-11.6,1.27,3.07,1.29,6.28,2.26,9.17s2.84,5.26,4.53,8.23a9.19,9.19,0,0,1,3,1.46c5.27,5.1,10.65,10.13,15.38,15.7,1,1.24,3.58,3.9,1.07,7-.65.8,1,3.84,2.08,5.62.88,1.52,2.75,2.52,3.47,4.07,4.1,8.89,5.33,10.94,9.22,13.47a.26.26,0,0,0,.37-.34c-4-7-6.14-17.71-4.42-22.6A71,71,0,0,0,688,363.39a.68.68,0,0,0,1.29-.16c.86-6.11-.73-25.45-1.95-30.84-2.88-12.74,1.1-24.15.65-37.2-.17-5,2-8.19.85-9.5-.08-.1-3.17,1.93-4.19,1.06-.09-.06,3.79-8.26,3.88-8.31C689.26,278,692.3,274.59,692,272.61ZM454.41,304.29c1.45,4.76-1.4,10.11-6.88,12.37a.79.79,0,0,1-1.06-.92c2.13-8.88,4.25-17.65,6.36-26.43.81-4.69,2.68-1.6,1.73.5-.58,1.62-1.68,3.26-1.61,4.85A39.1,39.1,0,0,0,454.41,304.29Z" transform="translate(-12.32 -164.04)"/><path d="M162.12,365.82c.87-.56,3.23,6.3,2.54,8.29-2.49,7.19-3.94,25.12-3.9,33.64a.19.19,0,0,0,.33.11c3.16-3.4,6.58-16.32,7.32-19.56,2-8.94,5.69-17.33,11-23.39a.25.25,0,0,0,0-.27c-1.66-4.62-3.67-8.25-4.13-12.07-.83-7.07-.69-14.26-1-21.4-.09-1.9-1.32-4.52-.48-5.57,2.69-3.34,1-6.93,1.18-10.27a63.82,63.82,0,0,0-1-11.56.2.2,0,0,1,.39-.1c2,4.53,7,7.55,6.75,13.22s5.76,11.12,7.78,8.28c1.74-2.44,2-4.25,3.2-7.12,1.8-4.28,2.67-9.15,6.55-12.24,1.21-1.1,1.77-1.92,1.38.93-1,3,.65,11.24.74,11.55.48,1.85,2,8.45,2.62,11.11.31,1.43-.79,3.8-.91,5.31-.35,4.37-2.09,8.47-1.53,12.72.52,4-.19,9.14-3.42,11.75a.2.2,0,0,0-.05.27c2.67,4,10.27,5.37,8.75,12.56-1.41-3.2-2.45-7.17-3.55-7.35-.4.21.24,2.9.36,4.1.7,6.78,4.79,29.12,4.8,23.1,0-8-.05-7.12.42-15.1.22-3.93,1.05-7.83,1.52-11.75a6.13,6.13,0,0,0-.43-2,41.8,41.8,0,0,1-.5-9.13c1.28-.78,3.31,27.93,4.3,42a.21.21,0,0,0,.42,0c.74-9.49.95-18.95,1.52-28.39a23.64,23.64,0,0,1,2.52-8.48c1.29-2.71,2.34-4.72,1.94-8.33-1.39-12.35-4.17-24.27-2-37.29.74-4.38-3.12-8.36-1.08-13.41a.49.49,0,0,1,.79-.2l7.83,6.15a1.07,1.07,0,0,1,.18,1.52c-2.53,3-3.22,6.65-2.32,11.09a.12.12,0,0,0,.19.07c.46-.42,1.74-2.05,2.12-2.48a.34.34,0,0,1,.38-.07c2.61,1.14,4.66,2.45,4.67,5.77a59,59,0,0,0,.84,8.69c.22,1.4.59,3.4,1.57,4,3.41,2,4,5.07,5,8.45,1.8,6,4.45,11.79,6.76,17.65a.21.21,0,0,0,.28.11c3.29-1.56,5.08.65,9.2,11.59a.21.21,0,0,0,.39,0l.9-3.23c.81-3,1.88-1.89,1.2.35-2,7-3.93,14-5.92,21.18a.22.22,0,0,0,.34.24c1.15-.88,2.75-1.84,3.52-3.25,2.93-5.37,5.58-10.9,8.07-16.49,1.9-4.24,3.42-8.65,5.32-13.58a.24.24,0,0,0,0-.22c-3.52-6-4.64-11.81-2.55-15.69a.2.2,0,0,1,.37.09c.17,2.53-.27,5.53,1,6.7,5.26,4.91,1.37,11.33,2.56,17.29a.07.07,0,0,0,.12,0,5.35,5.35,0,0,0,1.68-3.09c.39-5,.11-10.08,1-15,.26-1.53,3.18-8.2,2.78-5.74l-1,8a.2.2,0,0,0,.39.08c2.28-7,6.28-13,10.72-18.77a6.08,6.08,0,0,0,1.41-2.85c.41-4.89.61-9.8.92-14.7a7.56,7.56,0,0,1,.44-2.84c2.86-5.74,5.82-11.43,9.16-17.92a.25.25,0,0,1,.46.06c1.84,8.35,1.4,13.89-2.45,17.06a.3.3,0,0,0-.1.28c.37,2.05.8,3.72.93,5.42.18,2.15-.1,4.34.19,6.47.23,1.72,1.76,3.57,1.39,5-1.53,5.88-3.63,11.61-5.4,17.43-1.09,3.63-1.94,7.34-2.94,11-.4,1.43-.5,3.25-1.45,4.18-4.19,4.13-8.63,8-13.12,12.12l.09.38c4,1,5.74-2.38,8.36-3.92,4.39-2.58,8.24-5.74,10.63-10.17,1.82-3.38,2.88-7.17,4.52-11.4a20.37,20.37,0,0,1,1.07,2.12c.89,2.9,1.08,6.3,2.75,8.65a41.63,41.63,0,0,1,7.54,19.38c.27,2-.57,4.78,0,7.35.39,1.34.29,1.53,2.09.25,6-5.22-4.49-32-5.85-48.14.94,1.65,1.23,3.52,2.09,5.09a27.51,27.51,0,0,0,3.25,4.13.23.23,0,0,0,.4-.08,41.88,41.88,0,0,0,2-5.41c.52-2.23,1.67-5.07.79-6.72-2.9-5.48-1.05-10.46.61-15.51.25-.75,1.9-1,2.94-1.53l.11-.09c10.25-11.51,10.59-11.78,17.9-12.13a.17.17,0,0,1,.19.17c0,.75-.17,3.52-.2,4a.13.13,0,0,0,.08.13c2.56,1.39,6.9-1.4,6.64,3.6-.33,6.54.22,13.25-3.73,19.23-.68,1,.37,3.76,1.36,5.19,1.58,2.28,4.36,3.83,5.6,6.22a73.64,73.64,0,0,1,6.13,15c1.14,4.43,3.05,9,1.36,13.88-2,5.8-3.16,11.74-7,17s-7.84,10.36-13.49,14a.2.2,0,0,0,.15.37,22.25,22.25,0,0,0,7.34-2.52,120.26,120.26,0,0,0,10.66-7.94,13.7,13.7,0,0,0,3.1-3.12c1.73-2.62,3-5.53,4.85-8.09,4.06-5.74,8.35-11.33,12.48-17,.45-.62,1.65-1.83.88-2.36a146.21,146.21,0,0,1-12.53-16.38c-1.25-1.75-1.7-1.75-2,.57V352c-.85-7.07-2.36-13.94-3.06-20.88-.32-3.2.82-6.59,1.57-9.82,1.31-5.64,2.38-11.4,4.4-16.79,2-5.23,2.3-14.71,1.48-15.65-.35-.2-.4,1.95-.88,2.59-1.48,2-2.9,4.86-4.9,5.43-2.75.79-6-.11-9.06-.49-3.33-.41-6.51-3.14-9.13-2.44,2.49-1.38,5.87-3.07,8.35-5.64,3.32-3.42,5.4-8,8.29-12.59v-.22c-.6-1.14-1.22-3.68-2.64-4.25-3-1.22-6.44-1.43-9.72-2-1.33-.22-2.68-.36-4-.47-5.1-.41-10.2-.87-15.31-1.13-.53,0-1.1.78-1.49,1.19l-.32,0c-4.3-3.11-8.23-6-12.27-8.81a4.62,4.62,0,0,0-3-.47c-4.25.58-8.51,2-12.7,1.82-7.13-.33-13.22-3.77-19-8a.21.21,0,0,0-.31.24,10.66,10.66,0,0,0,2.17,3.84c2.6,2.58,5.46,4.91,8.24,7.31,1.09.94,2.12,2.27,3.39,2.63,5.71,1.63,10.41,4.22,12.1,10.35a.42.42,0,0,1-.16.42c-3.59,2.44-3.62,2.6-2.71,9a.22.22,0,0,1-.39.15c-9.28-12.9-21.53-14.61-32.32-21.75-.59-.39-.74.74-.92,1.24-.14,0-.29.13-.41.09s-.09-.23-.12-.36c-1.89-6.76-5.84-11.69-13-13-3.77-.71-10.3-.49-11.71,1.84,0,.32,1.39.28,1.71.29s6.89.85,7.24,2.12c1,3.57,3.8,7.9-1.12,11.33a14.65,14.65,0,0,0-4.42,5.61c-3.19,6.64-8.57,11.11-14.4,15.12-4.23,2.92-7.7,1.66-9.53-3.09-.1-.27-.67-2.33-1.14-.63-.28,1.26-.52,2.36-.76,3.46-.5,1.41-1.87-4.06-1.94-6.17-.07-2.36.21-5.18-.55-6.86-1.76-3.84-5.63-13-.51-11.84.49.11.43-.08-.31-.51-2.8-1.62-7.42,3.2-9,5.87-1.92,3.28-2.22,7.27-3.41,10.89a15.14,15.14,0,0,1-1.64,3.75,73.47,73.47,0,0,0-6.37,10.86c-.77,1.66-1.92,3.44-1.19,6,.11.39,1.08,3.77.1,2.64-2-2.32-4.33-4.41-6.12-6.88-2.33-3.24-4.15-6.85-6.42-10.13a7,7,0,0,0-2.63-1.74l-.09-.09c-2.32-4.15-4.67-7.85-6.51-11.79-1.61-3.48-2.78-6.09-4.11-9.7-.55-1.51-1.27.11-1.33,1.11-.39,6.34-3.21,22.15-3,22.19-1,5-.18,5.56-1.1,10.51,0,3.55-2.18,2.3-3.12.73h0l-7.46-11.15c-.17-.26-.48.35-.55.65,0,0-.37,1.36-.46,1.49s-.17.24-.23.14a44.93,44.93,0,0,1-.39-6.36c0-2.25.78-5.37-.37-6.59-4.26-4.46-3.87-8.42.46-13.29a.22.22,0,0,0-.21-.36c-2.29.49-3.89.56-5.06,1.3-5,3.11-7.08,8.24-9.3,13.39-2.37,5.5-4.68,11.22-8.19,16-2.42,3.28-3.75,5.78-.92,9.74a.21.21,0,0,1-.27.31c-2.49-1.4-4.5-2.1-5.46-3.51-2.76-4-4.82-8.56-7.43-12.71a5.65,5.65,0,0,0-2.54-1.74l-.08-.08c-2.72-4.53-5.3-8.18-7.18-12.16a85.38,85.38,0,0,1-3.66-10.09c-.84-2.19-1.27-1.83-1.47.19l-1.22,18.94a.2.2,0,0,1-.39.06c-2.94-8.17-3.66-9.15-7.64-10.29a.26.26,0,0,1-.17-.37c2.31-4.69,4.94-18.3,4.47-21.88a.19.19,0,0,0-.37-.06C88,255,85.82,260.3,83.56,265.55c-.76,1.77-2.27,3.38-2.49,5.17-.49,4.11-3.28,9.08,3,11.49.17.06.16.51.3.75,1.75,3.06,6.27,10.4,6.07,12.7-.3,3.41-1.7,7.25-.59,10.13,1.67,4.35,1.39,8.37.7,12.57-.45,2.73-2.47,5.85-1.67,8,1.93,5.2-.76,9.36-2.27,14.35a.2.2,0,0,1-.36.06l-5.05-7.09a.2.2,0,0,0-.37.14c.35,3.63.53,6.74,1.11,9.77.16.81,2.16,1.11,2.71,2,2.27,3.71,5.8,7.48,6,11.38.12,2.31.62,4.63.76,6.91a.62.62,0,0,0,1.21.18l2.86-7.75,0-.06c2.09-4.47,3-7.51,1.5.5h0s-2.1,14.82-.92,17c1.51,2.77,12.76-14.93,12.6-17.55-.31-5-2-10-2.21-15a171,171,0,0,1,.63-26c.36-3.23-.31-6.57-.63-10.14a.22.22,0,0,1,.39-.14c3.24,4.61,6.56,8.42,6.68,14.64.08,3.89,2.72,13,5.14,13.17.8.07,2-5.59,2.51-6.43,2.37-3.85,3-8.73,4.75-13a39.41,39.41,0,0,1,4.47-8.08,9.8,9.8,0,0,1,1.75-2.21s.82-.29.31,1.28-3.67,9.65-3.37,10.8c.2.76,2.91,3.84,3,4.85.42,5,1.1,9.67,1.31,14.38.22,4.95-.2,9.94.1,14.88.18,3.05-1.55,8-4.78,10a.24.24,0,0,0,0,.4,49.56,49.56,0,0,1,6.54,4.44c1.83,1.68,4.81,13.95,5,11,1.21-18.13,5.18-3.45,5.77-3.78,1.06-.6,2.64-9,4.22-13.43.76-2.12,2.15-4.17,2.28-6.32.15-2.46-.86-5-1.2-7.5-.47-3.42-.7-6.87-1.21-10.29-.25-1.71-1.32-3.39-1.26-5.05.21-6.37,1.13-12.74,1-19.09-.08-3.59-1.48-7.15-2.41-10.85a.23.23,0,0,1,.35-.23c1.12.76,2.1,1.47,3.14,2.1,7.27,4.36,9.87,10.58,7.59,18.78-.68,2.45-2.65,5.84-1.71,7.17,2.5,3.55.4,6.34.1,9.52-.61,6.29-2.06,12.76,1.69,18.72a4,4,0,0,1,.32,2c0,3.64-2.89,12.12,0,10.58m115.5-59.89a77.12,77.12,0,0,1-9.31,13.52c-4.78,5.46-5,5.22-6.2,12.79a66.38,66.38,0,0,1-2.12,7.46.1.1,0,0,1-.18,0c-2.07-4.13-5.11-12-6.14-13.19-.23-.25-.41-.16-.41-.16-1,2.84-.49,7.57-1.2,7.3.06-.08-4.26-8.06-4.31-8.24-1.8-5.46-4.1-15.66-6-21.49a.23.23,0,0,1,.27-.3l1,.44c.54.26.75.11.83-.27.32-1.48.91-2.87,1.36-4.29s1.33-2.19,1.52.2c.13,2.67,2.54,6.83,3.54,6.63a.84.84,0,0,0,.23-.51c.62-3-.56-18.74.3-26.84.24-1.33,1-1.4,1.17,0v8.48c.07,1.54,1.24,1.57,1.81.32,1.6-4.43,3.21-8.9,5-13.81a.26.26,0,0,1,.46-.05c2.76,4.52,4.47,9.51,10.34,10.39l-2.79-.14c-1-.13-1.41.54-.57,1.47,2.37,2.68,5,6.31,10.75,7a.57.57,0,0,0,.62-.46c.16-1.35,2.25,2.4,2.21,4.73A19.76,19.76,0,0,1,274.5,307.55Zm59.16-23.07c-3.77,3.41-7.29,6.84-11.08,9.94-4.1,3.36-8.44,6.41-12.37,9.35a.09.09,0,0,1-.14-.11l3-5.8v-.07c-1.55-4-1-7.93.21-11.74a14.6,14.6,0,0,1,3-5.49c.73-.77,2.74-.35,4.18-.39,1.88,0,3.77,0,4.94,0h0l8.22,4.15A.1.1,0,0,1,333.66,284.48Z" transform="translate(-12.32 -164.04)"/><path d="M243.24,301.9" transform="translate(-12.32 -164.04)"/><path d="M394.85,387.61c-1.62,12.25-8.7,19.07-5,23.12,2.77,5.38,5.15,11.11,8.61,16.09,1.11,1.61,5,1.4,7.72,1.72,1.07.12,2.25-.59,3.94-1.07-3.58,4.4-10.92,4.94-14.43,1.62-3.15-3-6.49-5.77-9.54-8.85a8.39,8.39,0,0,1-2.26-4.27c-.87-5.49-1.39-11-2.11-16.56a16.9,16.9,0,0,0-.93-3c-.36-1-.73-2.08-1.1-3.12-.47-1.8-.39-2.39,1.66-1.17l1.92,1.57a.46.46,0,0,0,.74-.44c-.63-3.44-4.55-11.87-11-12.65a.46.46,0,0,1-.37-.26c-2.27-4.51-2-8.57.67-13.25,1.87-3.27,1.64-7.74,2.32-11.67,1.16-6.62,1.9-13.33,3.52-19.83,3.45-13.87,1-27.89,1.26-41.82,0-3.29-.54-6.48,0-10,.55-3.31-1.32-7-1.85-10.53a53.37,53.37,0,0,1-.39-5.94c0-3.15-.17-5.47,2.47-.58,1.6,2.59,2.44,5.37,3.66,8.05,2.14,4.35,2.7,3.82,1.21-.52A101.7,101.7,0,0,0,381,263.92c-1.29-2.22-3.71-3.76-5.15-5.91-.56-.85-.1-2.66.36-3.84a7,7,0,0,1,1.43-2l-1.06-2c-6,.93-12.08,1.8-18.09,2.88-2.76.5-2.15,2.25-1.83,4.59.46,3.31-.28,6.79-.6,10.2a.44.44,0,0,1-.54.41c-2.91-.8-6.16-4.9-6.91-8.92-.19-1.06-.11-2.61-.77-3.08-3.82-2.75-2.77-5.24-.09-8,4.55-4.74,3.82-10.78,3.62-16.55-.1-2.8.56-3.89,3.41-3.22a32.35,32.35,0,0,0,6.72,1.32c1.91,0,3.81-1,5.75-1.25,3.3-.42,6.68-.38,10-.94,3.73-.64,3.71-1.65,2-4.89-.64-1.19.66-3.57,1.37-5.29,1.7-4.12,4.28-8,5.19-12.28a61.28,61.28,0,0,0,.91-15.5c-.16-3.59-4-24.06-3.94-25.24.3-3.4,6.47,19.36,7.12,22.31,1.64,7.43,3.3,14.71,7.24,21.36.66,1.12-.08,3.08-.21,4.65-.25,2.83-.51,5.65-.76,8.39a.46.46,0,0,1-.71.33l-4.32-2.91a.46.46,0,0,0-.61.08l-.37.44a.46.46,0,0,0,.05.63c1.44,1.31,2.74,3,4.43,3.59a81.53,81.53,0,0,0,14.33,3.38c2.56.33,5.32-.82,8-1.34a34.13,34.13,0,0,0,4.83-1.09,8.35,8.35,0,0,0,3.73-2.1c.32-.39-.33-1.56-.91-2.91a.46.46,0,0,1,.59-.61c3.54,1.39,5,4.46,6.53,7.3.85,1.52.92,3.79,2.12,4.74,3.28,2.61,3.26,5.94,3.06,9.49-.29,5.22,1.77,9.74,4,14.33,1.29,2.72,1.71,5.86,2.63,9.37a.45.45,0,0,1-.12.45c-3.53,3.39-7.65,6.83-11.07,10.87-2.69,3.17-4.05,7.48-6.76,10.63-4.48,5.2-6.23,5.43-10.92,2.62a.46.46,0,0,1,.06-.83c2.43-.91,5.62-1.62,7.36-3.6,2.15-2.46,2.73-6.35,3.8-9.68s1-7.28,3-9.73c3.11-3.88,1.44-6.61-.36-9.8-.24-.43-1.77-3-1-2.61L434.1,256c2.68,1.65,3.32,1.44.67-.77-1.57-1.29-2.95-3-4.74-3.79-4.17-1.8-7.21-6.13-12.64-5.21-3.83.65-7.78.64-11.69.91s-4.43,3.74-4.27,6c.3,4-1.14,7.51,1.83,12.24.58.93-1.12,2.35-1.13,3.59-.1,11.61-.36,23.23.12,34.81.15,3.71,2.06,7.47,3.74,10.93,1.19,2.46,1.22,3.92-.1,6.59-2.76,5.61-4.53,11.74-6.35,17.76-1.9,6.28-3.94,12.6-4.83,19.05C394.24,361.5,395.63,381.64,394.85,387.61Z" transform="translate(-12.32 -164.04)"/><path d="M56,289.26l4.76,8.38.81-.32a38,38,0,0,0-1.88-6.14c-1.29-2.66-3-5.1-4.53-7.67a8.07,8.07,0,0,1-1.25-2.94c-.51-4.53-.46-4.53-4.71-7.41L44.29,279c-.47-3.25,1.36-5.71,3.05-8,3.78-5.12,3.29-11.21-2.05-16.44l2.31,9.12c-5,2-5.57-3.14-8-5.24a27.26,27.26,0,0,1-2.32-2.24c-2.38-2.57-5.56-4.22-5.68-8.74-.16-5.67-3.63-10.33-7.51-14.32-4.68-4.81-9.8-9.22-11.65-16-.14-.52-.21-1.51.55-1.78,1.06-.26,1.37,3.52,2.58,4.86,3.32,3.67,7,7.05,10.45,10.57s6.89,7.39,10.72,10.64a29.15,29.15,0,0,0,8.36,4.7c1.19.46,3-.7,5.68-1.43l3.16,7.39.58-.18c-1.18-3.81-2.38-7.61-3.54-11.42-.24-.79-.7-1.8-.42-2.4,2.67-5.61-1.35-9.75-3.06-14.38-.11-.3-1-.44-1-.66,0-6.84-6.72-9.33-9.64-15.16,5.73,3.77,10.8,7.26,13.53,13.22.29.61.43,1.65.86,1.79,7.23,2.34,4.36,10.08,7.81,14.38,1.36,1.69,2.7,3.7,4.53,4.66,3.62,1.91,6.6,6.24,6.07,10.58,7-2.53,7.1-13.28,16-13.16-8.25,11.24-9.14,24.16-10.21,37.34l-3.26-1.85c2.16,4.72,4.93,8.94,6,13.56.91,4.09-.47,8.63-.21,12.93s-3.43,8.73.13,13.14c.63.79.58,2.58.18,3.68-3.56,9.86-.92,20-1.42,30-.23,4.59.85,9.27,1.61,13.86a14.85,14.85,0,0,0,2.06,5.25c1.71,2.74,2,4.66.06,8C76,383,67.73,386.48,61.83,392.64c-1.42,1.48-3.38,2.44-4.71,4.26,4.31-2.52,8.42-5,13.73-4.3,1.13.15,2.41-.94,4.08-.59-2,1.06-3.92,2.57-6.06,3.11-5.53,1.39-6.91,3.52-7.55,9.1-.71,6,2.37,11,3.78,16.35.48,1.85,3.35,3.09,5,4.46-3,1.4-8.62-.63-10.86-4.74-2-3.64-3.55-7.51-5.44-11.2a11,11,0,0,0-2.47-3c-4.9-4.52.62-8.72.46-13.13-.1-2.72,1.88-5.47,2-8.24.49-13,.74-25.94.89-38.91.05-4-1.42-8.29-.61-12.1,1.65-7.75-.44-15.11-1.18-22.58a40.68,40.68,0,0,1,2-18.08,10.89,10.89,0,0,0,.05-3.38Z" transform="translate(-12.32 -164.04)"/></svg>